# xmcd
# Copyright (C) 1995-1998 Ti Kan
#
# Track frame offsets:
#       150
#       13602
#       26160
#       37996
#       53883
#       63329
#       76326
#       91836
#       107388
#       126811
#       139001
#       153721
#       227435
#
# Disc length: 3188 seconds
#
# Revision: 0
# Processed by: cddbd v1.5.2PL0 Copyright (c) Steve Scherf et al.
# Submitted via: CD-Transfer v1.0
#
DISCID=990c720d
DTITLE=Alpenland/Diana - 
DYEAR=1900
DGENRE=
TTITLE0=Nur Nöd De Meier
TTITLE1=Dibi Däbi Sänneball
TTITLE2=Ramba Zamba Uf De Chistleralp
TTITLE3=Wänn Ich En Ängel Wär
TTITLE4=Mir Wänd's Luschtig Ha
TTITLE5=Einkalm Isch Keinmak
TTITLE6=Nordig Walking (So Viel Schwung)
TTITLE7=Immer Wänn Ich Chinde Vor Mir Gseh
TTITLE8=Stimmigs-Medley
TTITLE9=De Papi Isch De Gröscht
TTITLE10=En Abig Dehei
TTITLE11=Diana's Gröschti Erfolg
TTITLE12=Feierabend (Ch-Version)
EXTD=
EXTT0=
EXTT1=
EXTT2=
EXTT3=
EXTT4=
EXTT5=
EXTT6=
EXTT7=
EXTT8=
EXTT9=
EXTT10=
EXTT11=
EXTT12=
PLAYORDER=
